<?xml version="1.0" encoding="UTF-8"?>
<svg width="256" height="256" viewBox="0 0 256 256" xmlns="http://www.w3.org/2000/svg">
  <defs>
    <linearGradient id="backgroundGradient" x1="0%" y1="0%" x2="100%" y2="100%">
      <stop offset="0%" style="stop-color:#42ABEE;stop-opacity:1" />
      <stop offset="100%" style="stop-color:#1E88E5;stop-opacity:1" />
    </linearGradient>
    
    <linearGradient id="documentGradient" x1="0%" y1="0%" x2="100%" y2="100%">
      <stop offset="0%" style="stop-color:#FFFFFF;stop-opacity:1" />
      <stop offset="100%" style="stop-color:#F5F5F5;stop-opacity:1" />
    </linearGradient>
    
    <linearGradient id="planeGradient" x1="0%" y1="0%" x2="100%" y2="100%">
      <stop offset="0%" style="stop-color:#FFFFFF;stop-opacity:1" />
      <stop offset="100%" style="stop-color:#E3F2FD;stop-opacity:1" />
    </linearGradient>
    
    <filter id="shadowFilter" x="-50%" y="-50%" width="200%" height="200%">
      <feDropShadow dx="0" dy="4" stdDeviation="8" flood-color="#000000" flood-opacity="0.25"/>
    </filter>
  </defs>
  
  <!-- Background Circle -->
  <circle cx="128" cy="128" r="116" fill="url(#backgroundGradient)" filter="url(#shadowFilter)"/>
  
  <!-- Document Background -->
  <rect x="64" y="48" width="128" height="160" rx="12" ry="12" 
        fill="url(#documentGradient)" 
        stroke="#42ABEE" stroke-width="2" 
        filter="url(#shadowFilter)"/>
  
  <!-- Document Text Lines -->
  <rect x="80" y="72" width="96" height="4" rx="2" fill="#42ABEE" opacity="0.7"/>
  <rect x="80" y="88" width="76" height="4" rx="2" fill="#42ABEE" opacity="0.5"/>
  <rect x="80" y="104" width="88" height="4" rx="2" fill="#42ABEE" opacity="0.7"/>
  <rect x="80" y="120" width="64" height="4" rx="2" fill="#42ABEE" opacity="0.5"/>
  
  <!-- Chat Bubbles -->
  <ellipse cx="100" cy="148" rx="16" ry="12" fill="#42ABEE" opacity="0.6"/>
  <ellipse cx="140" cy="164" rx="20" ry="14" fill="#1E88E5" opacity="0.7"/>
  
  <!-- Paper Plane (Telegram signature) -->
  <g transform="translate(145, 85)">
    <path d="M 0 0 L 32 -12 L 24 8 L 16 4 L 8 16 Z" 
          fill="url(#planeGradient)" 
          stroke="#42ABEE" stroke-width="1.5"
          filter="url(#shadowFilter)"/>
    <!-- Plane trail -->
    <path d="M 8 2 L 20 -6" stroke="#42ABEE" stroke-width="2" opacity="0.8"/>
    <path d="M 12 6 L 24 -2" stroke="#42ABEE" stroke-width="1.5" opacity="0.6"/>
  </g>
  
  <!-- Magnifying Glass (Reading Symbol) -->
  <g transform="translate(160, 140)">
    <circle cx="0" cy="0" r="16" fill="none" stroke="#FFFFFF" stroke-width="3"/>
    <circle cx="0" cy="0" r="12" fill="none" stroke="#42ABEE" stroke-width="2"/>
    <line x1="11" y1="11" x2="20" y2="20" stroke="#FFFFFF" stroke-width="3" stroke-linecap="round"/>
    <line x1="11" y1="11" x2="20" y2="20" stroke="#42ABEE" stroke-width="2" stroke-linecap="round"/>
  </g>
  
  <!-- Highlight Effects -->
  <ellipse cx="100" cy="80" rx="30" ry="8" fill="#FFFFFF" opacity="0.2"/>
  <ellipse cx="128" cy="60" rx="40" ry="6" fill="#FFFFFF" opacity="0.15"/>
</svg> 